<?xml version="1.0" encoding="UTF-8"?>
<svg width="1200pt" height="1200pt" version="1.1" viewBox="0 0 1200 1200" xmlns="http://www.w3.org/2000/svg">
 <path d="m183.32 633.32c-64.312 0-116.67-67.312-116.67-150s52.312-150 116.67-150c64.312 0 116.67 67.312 116.67 150s-52.312 150-116.67 150z" fill="#fff"/>
 <path d="m583.31 249.98c0-101.16 59.812-183.32 133.31-183.32 73.496 0 133.31 82.172 133.31 183.32 0 101.16-59.812 183.32-133.31 183.32-73.496 0-133.31-82.172-133.31-183.32z" fill="#fff"/>
 <path d="m881.48 695.81c-30.656-29.016-71.484-45.844-114.84-45.844-91.828 0-166.69 74.812-166.69 166.69 0 27.328 7.6875 55.5 20.344 83.344h-194.81c-30.516 0-60.656-8.0156-87-23.156-54.656-31.172-88.5-89.484-88.5-152.34 0-72.844 35.156-141.84 93.984-184.69l24.656-18c49.688-36.188 108.33-55.172 169.69-55.172h56.672c61.312 0 120 18.984 169.69 55.172l24.656 18c51 37.172 84.328 93.984 92.156 156z" fill="#fff"/>
 <path d="m283.31 249.98c0-101.16 59.812-183.32 133.31-183.32 73.496 0 133.31 82.172 133.31 183.32 0 101.16-59.812 183.32-133.31 183.32-73.496 0-133.31-82.172-133.31-183.32z" fill="#fff"/>
 <path d="m1066.7 466.69c0 82.688-52.312 150-116.67 150-64.312 0-116.67-67.312-116.67-150s52.312-150 116.67-150c64.312 0 116.67 67.312 116.67 150z" fill="#fff"/>
 <path d="m883.31 1133.3c-3.4688 0-6.9375-1.0781-9.8438-3.2344-9.7969-7.1719-240.14-177.71-240.14-313.45 0-73.5 59.812-133.31 133.31-133.31 50.109 0 93.891 27.797 116.67 68.812 22.781-41.016 66.516-68.812 116.67-68.812 73.5 0 133.31 59.812 133.31 133.31 0 135.71-230.34 306.24-240.14 313.45-2.9531 2.1562-6.375 3.2344-9.8438 3.2344zm-116.62-416.68c-55.125 0-99.984 44.859-99.984 99.984 0 104.53 173.06 245.26 216.66 279.05 43.594-33.797 216.66-174.61 216.66-279.05 0-55.125-44.859-99.984-99.984-99.984s-99.984 44.859-99.984 99.984c0 9.1875-7.4531 16.688-16.688 16.688s-16.688-7.4531-16.688-16.688c0-55.125-44.859-99.984-99.984-99.984z" fill="#fff"/>
</svg>
