<?xml version="1.0" encoding="UTF-8"?>
<svg width="1200pt" height="1200pt" version="1.1" viewBox="0 0 1200 1200" xmlns="http://www.w3.org/2000/svg">
 <path d="m0 1151.8h1200v26.531h-1200z" fill="#fff"/>
 <path d="m641.29 535.08c-7.2188 38.625-33.469 96.141-107.86 170.53-33.141 33.141-79.312 83.297-97.688 134.39-25.219 71.531-4.5469 141.94 55.453 195.71 0.375-15.375 3-30.141 7.9219-44.297 8.5312-23.859 22.922-35.062 35.766-44.859 4.9219-3.9375 9.4688-7.2188 13.781-11.531 29.859-29.859 43.312-88.547 43.312-89.156 1.6875-6.6094 6.2344-12.141 12.469-14.391 6.6094-2.625 13.453-1.9219 18.938 1.9219 37.078 24.938 50.531 73.781 55.078 114.14h0.60938c8.8594 0 17.391 6.8438 20.625 15.375 11.766 35.391 18 66.844 18 94.453 42.938-34.453 80.297-107.16 41.062-259.69-7.2188 9.8438-16.453 20.625-28.219 31.453-6.2344 5.5312-15.375 6.8438-23.297 3.2344-7.5469-3.9375-11.766-12.141-11.156-20.297 0.28125-2.2031 17.062-184.22-54.797-276.98z" fill="#fff"/>
 <path d="m0 21.609v122.63h1200v-122.63z" fill="#fff"/>
 <path d="m1103.6 1110.8v-925.55h-1007.3v925.55h142.92v-523.69c0-128.53 104.62-233.16 233.16-233.16h255.14c128.53 0 233.16 104.62 233.16 233.16v523.55h142.87z" fill="#fff"/>
</svg>
