<?xml version="1.0" encoding="UTF-8"?>
<svg width="1200pt" height="1200pt" version="1.1" viewBox="0 0 1200 1200" xmlns="http://www.w3.org/2000/svg">
 <path d="m1071.1 608.76c10.016-15.266 22.133-29.043 36-40.922-17.477-5.4414-34.113-13.277-49.441-23.281-22.559-15.48-40.078-21.238-76.199 7.1992-9.3594 7.4414-12 6.3594 9.4805-13.078 32.641-29.879 20.641-57.961 20.641-57.961-15.602-4.2109-32.066-3.9805-47.547 0.66016-15.477 4.6445-29.348 13.52-40.055 25.621 3.2852-12.117 1.6914-25.043-4.4414-36 0 0-31.559-3.9609-42.117 64.199-4.9102 23.703-5.4805 48.098-1.6797 72-12.91 2.8438-25.617 6.5312-38.043 11.039 9.875-33.059 16.898-66.902 21-101.16l-35.039-5.0391c16.199 60-15 123.72-15 123.72l16.199 10.32c17.527-7.9531 35.996-13.641 54.961-16.918 6.6133 21.629 16.441 42.137 29.16 60.84 36 58.68 64.078 42.719 64.078 42.719 1.8477-13.105-1.8008-26.391-10.078-36.719 14.672 6.9023 30.984 9.5508 47.086 7.6406 16.102-1.9102 31.344-8.2969 43.992-18.441 0 0 0-30.602-41.879-45-27.238-9.3594-25.441-11.281-13.922-8.2812 44.523 12.242 57.723 0.12109 72.844-23.156z" fill="#fff"/>
 <path d="m711.48 597.24c-11.797-4.9219-25.074-4.9375-36.883-0.039062-11.809 4.9023-21.172 14.309-26.02 26.137-4.8477 11.832-4.7773 25.105 0.19922 36.883 4.9727 11.773 14.441 21.078 26.305 25.852 11.859 4.7695 25.133 4.6133 36.875-0.44141 11.746-5.0508 20.988-14.578 25.684-26.469 4.6133-11.691 4.457-24.727-0.43359-36.305s-14.129-20.773-25.727-25.617zm-29.039 26.762c-3.3242 2.7031-6.3438 5.7617-9 9.1211l-4.1992 5.3984h-0.003907c-1.4219 1.9922-2.9844 3.875-4.6797 5.6406 0.0625-2.4961 0.30469-4.9805 0.72266-7.4414 0.58203-2.4648 1.3828-4.875 2.3984-7.1992 2.1445-4.6406 5.3008-8.7422 9.2422-12 4.2266-3.4023 9.3555-5.4883 14.758-6 5.2461-0.61719 10.527 0.80078 14.762 3.9609-8.7148 0.15625-17.141 3.1445-24 8.5195z" fill="#fff"/>
 <path d="m884.04 711.84c-11.805-4.8945-25.074-4.8789-36.871 0.042968-11.793 4.9219-21.137 14.344-25.961 26.18s-4.7305 25.105 0.26172 36.871c4.9961 11.766 14.473 21.051 26.336 25.805 11.867 4.75 25.137 4.5781 36.871-0.48828 11.734-5.0625 20.965-14.598 25.645-26.488 4.6055-11.707 4.4336-24.754-0.48047-36.336-4.9141-11.578-14.18-20.766-25.801-25.586zm-27 24.961c-3.3203 2.7031-6.3398 5.7617-9 9.1211l-4.3203 5.3984c-1.4062 2.0039-2.9297 3.9297-4.5586 5.7578 0.0625-2.5312 0.30078-5.0586 0.71875-7.5586 0.57812-2.4141 1.3398-4.7812 2.2812-7.0781 2.1719-4.6562 5.3711-8.7617 9.3594-12 4.2266-3.4023 9.3594-5.4883 14.762-6 5.207-0.63672 10.461 0.78516 14.641 3.957-8.6641 0.12109-17.051 3.0703-23.883 8.4023z" fill="#fff"/>
 <path d="m801.48 649.08c-11.82-4.8359-25.082-4.7617-36.852 0.20703-11.766 4.9688-21.066 14.422-25.844 26.27-4.7773 11.844-4.6367 25.105 0.39453 36.848 5.0273 11.742 14.527 20.996 26.398 25.711 11.871 4.7148 25.133 4.5078 36.848-0.58203 11.715-5.0898 20.918-14.637 25.574-26.531 4.5938-11.734 4.3867-24.809-0.57422-36.395-4.9609-11.582-14.281-20.754-25.945-25.527zm-27.48 24.961c-3.207 2.8281-6.2148 5.875-9 9.1211l-4.1992 5.3984c-1.4102 2.0078-2.9297 3.9297-4.5625 5.7617-0.23438-2.4766-0.23438-4.9648 0-7.4414 0.67578-2.4375 1.4766-4.8438 2.4023-7.1992 2.1875-4.6445 5.3867-8.7461 9.3594-12 4.1641-3.4297 9.2656-5.5195 14.641-6 5.2266-0.61328 10.496 0.75391 14.758 3.8398-8.4883 0.36328-16.66 3.3398-23.398 8.5195z" fill="#fff"/>
 <path d="m619.2 655.68c-11.797-4.9219-25.07-4.9375-36.879-0.039063-11.809 4.8984-21.176 14.305-26.023 26.137-4.8477 11.828-4.7773 25.102 0.19922 36.879 4.9766 11.777 14.441 21.082 26.305 25.852 11.859 4.7734 25.133 4.6133 36.879-0.4375 11.742-5.0508 20.988-14.578 25.68-26.469 4.6172-11.691 4.4609-24.727-0.42969-36.305-4.8945-11.578-14.129-20.777-25.73-25.617zm-28.559 22.801c-3.2227 2.7695-6.1953 5.8242-8.8789 9.1211l-4.3203 5.3984c-1.4102 2.0078-2.9336 3.9297-4.5625 5.7617 0.0625-2.5352 0.30469-5.0625 0.72266-7.5625 0.60938-2.457 1.4141-4.8672 2.3984-7.1992 2.2305-4.6211 5.4219-8.7109 9.3594-12 4.2266-3.4023 9.3594-5.4883 14.762-6 5.1992-0.51562 10.406 0.89453 14.641 3.9609-8.75 0.15625-17.215 3.1445-24.121 8.5195z" fill="#fff"/>
 <path d="m615.12 762.96c-11.801-4.9258-25.074-4.9375-36.883-0.039063-11.809 4.8984-21.176 14.305-26.023 26.133-4.8438 11.832-4.7734 25.105 0.20312 36.883 4.9727 11.777 14.441 21.082 26.301 25.852 11.863 4.7695 25.137 4.6133 36.879-0.4375 11.746-5.0508 20.988-14.582 25.684-26.473 4.6133-11.691 4.457-24.723-0.43359-36.301s-14.129-20.777-25.727-25.617zm-30.84 24c-3.3242 2.7031-6.3398 5.7617-9 9.1172l-4.1992 5.3984-0.003906 0.003907c-1.4141 1.9609-2.9375 3.8438-4.5586 5.6406-0.23828-2.4766-0.23828-4.9648 0-7.4414 0.71875-2.3984 1.4414-4.8008 2.3984-7.1992h0.003906c2.1484-4.6719 5.3516-8.7773 9.3594-12 4.1914-3.3789 9.2812-5.4648 14.641-6 5.2422-0.61719 10.527 0.80078 14.758 3.9609-8.5273 0.375-16.719 3.4414-23.398 8.7578z" fill="#fff"/>
 <path d="m796.56 767.28c-11.797-4.9258-25.07-4.9375-36.879-0.039062-11.809 4.8984-21.176 14.305-26.023 26.133-4.8477 11.832-4.7734 25.105 0.19922 36.883 4.9766 11.777 14.445 21.082 26.305 25.852s25.133 4.6133 36.879-0.4375c11.742-5.0508 20.988-14.582 25.68-26.473 4.6172-11.691 4.4609-24.727-0.42969-36.305-4.8906-11.574-14.129-20.773-25.73-25.613zm-31.68 24c-3.293 2.7344-6.3086 5.7891-9 9.1172l-4.1992 5.3984v0.003906c-1.4062 2.0039-2.9297 3.9297-4.5586 5.7578-0.039063-2.5312 0.16016-5.0625 0.59766-7.5586 0.67578-2.4023 1.4766-4.7656 2.4023-7.0781 2.1289-4.6836 5.3359-8.7969 9.3594-12 4.1914-3.3828 9.2812-5.4648 14.641-6 5.2461-0.61719 10.527 0.79688 14.758 3.957-8.7773 0.35156-17.203 3.5547-24 9.1211z" fill="#fff"/>
 <path d="m792 874.92c-11.797-4.9258-25.074-4.9414-36.883-0.042969-11.809 4.9023-21.172 14.309-26.02 26.137-4.8477 11.832-4.7773 25.105 0.19922 36.883 4.9766 11.773 14.441 21.082 26.305 25.852 11.859 4.7695 25.133 4.6133 36.879-0.4375 11.742-5.0547 20.984-14.582 25.68-26.473 4.6133-11.691 4.4609-24.727-0.43359-36.305-4.8906-11.578-14.129-20.773-25.727-25.613zm-27.48 27.121v-0.003907c-3.293 2.7344-6.3086 5.793-9 9.1211-1.2812 1.7617-2.7188 3.5586-4.3203 5.3984-1.3711 2.0352-2.8945 3.9609-4.5586 5.7617-0.074219-5.0391 0.94922-10.035 3-14.641 2.2305-4.6211 5.418-8.7109 9.3594-12 4.2148-3.4375 9.3477-5.5664 14.762-6.1211 5.2344-0.5 10.477 0.90625 14.758 3.9609-8.7148 0.15625-17.137 3.1484-24 8.5195z" fill="#fff"/>
 <path d="m888 817.92c-11.797-4.9258-25.074-4.9414-36.883-0.042969-11.809 4.9023-21.172 14.309-26.02 26.137-4.8477 11.832-4.7773 25.105 0.19922 36.883 4.9766 11.773 14.441 21.082 26.305 25.852 11.859 4.7695 25.133 4.6133 36.879-0.4375 11.742-5.0547 20.984-14.582 25.68-26.473 4.6133-11.691 4.4609-24.727-0.43359-36.305-4.8906-11.578-14.129-20.773-25.727-25.613zm-30.359 25.559c-3.3242 2.7031-6.3398 5.7617-9 9.1211-1.3594 1.8398-2.8008 3.6406-4.3203 5.3984-1.3711 2.0352-2.8945 3.9609-4.5586 5.7617 0.058593-2.5352 0.30078-5.0625 0.71875-7.5625 0.59375-2.4492 1.3555-4.8555 2.2812-7.1992 2.2266-4.6211 5.418-8.7109 9.3594-12 4.2266-3.4023 9.3594-5.4883 14.758-6 5.2461-0.61719 10.527 0.80078 14.762 3.9609-8.8789 0.050781-17.488 3.0469-24.48 8.5195z" fill="#fff"/>
 <path d="m714 704.88c-11.797-4.9219-25.074-4.9375-36.883-0.039062-11.809 4.8984-21.172 14.309-26.02 26.137-4.8477 11.828-4.7773 25.105 0.19922 36.879 4.9766 11.777 14.441 21.082 26.305 25.855 11.859 4.7695 25.133 4.6094 36.879-0.44141 11.742-5.0508 20.984-14.578 25.68-26.469 4.6133-11.691 4.4609-24.727-0.43359-36.305-4.8906-11.578-14.129-20.773-25.727-25.617zm-31.68 24c-3.3242 2.7031-6.3398 5.7617-9 9.1211-1.3203 1.8008-2.7617 3.4805-4.3203 5.3984-1.3711 1.9961-2.8984 3.8828-4.5586 5.6406 0.058594-2.4922 0.30078-4.9805 0.71875-7.4375 0.59375-2.4492 1.3555-4.8555 2.2812-7.2031 2.2266-4.6211 5.418-8.7109 9.3594-12 4.2266-3.3984 9.3594-5.4844 14.758-6 5.2266-0.58984 10.488 0.77734 14.762 3.8398-8.6719 0.0625-17.09 2.9258-24 8.1602z" fill="#fff"/>
 <path d="m701.88 820.2c-11.797-4.9219-25.07-4.9375-36.879-0.039063-11.809 4.8984-21.176 14.305-26.023 26.137-4.8477 11.828-4.7773 25.105 0.19922 36.879 4.9766 11.777 14.445 21.082 26.305 25.855 11.859 4.7695 25.133 4.6094 36.879-0.44141 11.742-5.0508 20.988-14.578 25.68-26.469 4.6172-11.691 4.4609-24.727-0.42969-36.305-4.8945-11.578-14.129-20.773-25.73-25.617zm-29.879 25.801c-3.2656 2.7656-6.2773 5.8203-9 9.1211l-4.1992 5.3984c-1.4102 1.9688-2.9336 3.8516-4.5625 5.6406-0.039062-2.4922 0.16406-4.9844 0.60156-7.4414 0.71875-2.3984 1.4414-4.8008 2.3984-7.1992 2.1914-4.6445 5.3906-8.7461 9.3633-12 4.2266-3.4023 9.3555-5.4883 14.758-6 5.1914-0.60547 10.418 0.76562 14.641 3.8398-8.7227 0.22656-17.137 3.2539-24 8.6406z" fill="#fff"/>
 <path d="m692.4 928.92c-11.797-4.9258-25.07-4.9414-36.879-0.042969-11.809 4.9023-21.176 14.309-26.023 26.137-4.8477 11.832-4.7734 25.105 0.19922 36.883 4.9766 11.773 14.445 21.082 26.305 25.852s25.137 4.6133 36.879-0.4375c11.742-5.0547 20.988-14.582 25.68-26.473 4.6172-11.691 4.4609-24.727-0.42969-36.305s-14.129-20.773-25.73-25.613zm-26.16 24.961v-0.003906c-3.3203 2.7031-6.3398 5.7617-9 9.1211-1.3203 1.8008-2.7617 3.4805-4.3203 5.3984h0.003906c-1.375 1.9961-2.8984 3.8828-4.5625 5.6406 0.0625-2.4922 0.30469-4.9805 0.71875-7.4375 0.59766-2.4492 1.3594-4.8555 2.2812-7.2031 2.2305-4.6211 5.4219-8.7109 9.3594-12 4.2266-3.3984 9.3594-5.4844 14.762-6 5.2266-0.58984 10.484 0.77734 14.758 3.8398-8.7227 0.19922-17.148 3.2344-24 8.6406z" fill="#fff"/>
 <path d="m564 1080c-16.434-0.23047-32.055-7.1914-43.215-19.258-11.156-12.066-16.879-28.18-15.824-44.582-13.078 0-27.121 0.83984-41.398 0.83984-58.199 0-111.6-5.2812-111.6-5.2812v-436.56s49.32 5.2812 111.6 5.2812 111.48-5.2812 111.48-5.2812v71.16h-0.003907c7.3242-3.5234 15.285-5.5234 23.402-5.8789v-89.16c0-125.88-78.602-125.88-78.602-193.92v-215.16c3.3047-0.19141 5.8867-2.9297 5.8789-6.2383v-31.562c0.007812-3.3086-2.5742-6.0469-5.8789-6.2383v-2.1602c0-4.9648-1.9727-9.7266-5.4844-13.238-3.5078-3.5078-8.2695-5.4805-13.234-5.4805h-75.242c-4.9648 0-9.7266 1.9727-13.234 5.4805-3.5117 3.5117-5.4844 8.2734-5.4844 13.238v2.5195c-3.3047 0.19141-5.8867 2.9297-5.8789 6.2422v31.559c-0.007812 3.3086 2.5742 6.0469 5.8789 6.2383v214.8c0 68.039-78.602 68.039-78.602 193.92v523.32c0.03125 10.609 4.2695 20.77 11.781 28.262 7.5156 7.4922 17.691 11.695 28.301 11.695h189.84c10.598 0 20.762-4.207 28.254-11.703 7.4961-7.4922 11.707-17.656 11.707-28.254v-5.7617c-10.059 7.1758-22.086 11.074-34.441 11.16z" fill="#fff"/>
 <path d="m581.88 976.2c-11.797-4.9219-25.07-4.9375-36.879-0.039063-11.809 4.8984-21.176 14.305-26.023 26.137-4.8477 11.828-4.7773 25.105 0.19922 36.879 4.9766 11.777 14.445 21.082 26.305 25.855 11.859 4.7695 25.133 4.6094 36.879-0.44141 11.742-5.0508 20.988-14.578 25.68-26.469 4.6172-11.691 4.4609-24.727-0.42969-36.305-4.8945-11.578-14.129-20.773-25.73-25.617zm-29.879 25.562c-3.3242 2.7031-6.3398 5.7617-9 9.1172-1.2812 1.8398-2.7188 3.6406-4.3203 5.3984v0.003906c-1.3398 2.0156-2.8672 3.9023-4.5586 5.6406 0.058594-2.4961 0.30078-4.9805 0.71875-7.4414 0.59375-2.4492 1.3555-4.8555 2.2812-7.1992 2.1875-4.6484 5.3867-8.7461 9.3594-12 4.2266-3.4023 9.3594-5.4883 14.758-6 5.2266-0.59375 10.488 0.77734 14.762 3.8398-8.7266 0.19531-17.148 3.2305-24 8.6406z" fill="#fff"/>
 <path d="m601.8 872.76c-11.797-4.9258-25.074-4.9414-36.883-0.039063-11.809 4.8984-21.176 14.305-26.02 26.133-4.8477 11.832-4.7773 25.105 0.19922 36.883 4.9727 11.773 14.441 21.082 26.301 25.852 11.863 4.7695 25.137 4.6133 36.879-0.4375 11.746-5.0547 20.988-14.582 25.684-26.473 4.6133-11.691 4.457-24.727-0.43359-36.305s-14.129-20.773-25.727-25.613zm-29.398 24h-0.003906c-3.293 2.7344-6.3086 5.7891-9 9.1172-1.2812 1.8398-2.7188 3.6406-4.3203 5.3984v0.003906c-1.3672 2.0312-2.8945 3.957-4.5586 5.7578 0.0625-2.5312 0.30078-5.0586 0.71875-7.5586 0.56641-2.4336 1.3711-4.8047 2.4023-7.082 2.1523-4.6328 5.3086-8.7305 9.2383-12 4.2266-3.3984 9.3594-5.4844 14.762-6 5.1914-0.60547 10.43 0.67187 14.758 3.6016-8.7539 0.25781-17.184 3.3789-24 8.8789z" fill="#fff"/>
</svg>
