<?xml version="1.0" encoding="UTF-8"?>
<svg width="1200pt" height="1200pt" version="1.1" viewBox="0 0 1200 1200" xmlns="http://www.w3.org/2000/svg">
 <path d="m433.43 936.43c0 44.703 0.003906 89.406-0.042969 134.11-0.019531 16.91 2.3164 38.164-8.5781 52.453-9.7891 12.844-27.875 17.125-42.789 11.586-16.352-6.0742-22.066-20.297-22.953-36.559-1.2109-22.141-0.4375-44.578-0.38672-66.746 0.10547-45.199 0.14062-90.398 0.14062-135.6-15.582 5.5508-28.539 14.098-43.688 14.836-4.6406 7.2969-1.8789 22.43-1.8789 30.578 0 11.48 0.007813 22.965 0.019532 34.445 0.023437 22.965 0.0625 45.926 0.089844 68.891 0.035156 32.43 8.8828 98.539-43.117 92.707-43.301-4.8555-32.969-62.52-32.941-92.527 0.039062-46.656 0.19141-93.312 0.19141-139.97-32.402-14.93-55.363-38.848-71.59-68.734-98.047 5.8086-171.59-100.77-119.86-199.5-49.648-66.391-36.496-140.56 8.3555-188.57-2.9609-33.789 6.9688-66.52 26.316-94.172 10.387-14.844 17.383-20.039 16.125-38.559-1.0742-15.84-0.26562-31.832 3.5703-47.289 7.1094-28.656 24.574-53.672 47.926-71.566 22.461-17.215 49.566-21.562 77.051-24.543 27.062-38.781 67.945-64.137 115.41-68.09 29.098-2.4219 51.645 6.1641 78.328 15.656 13.148 4.6758 20.543 0.84375 33.434-2.8867 14.355-4.1562 29.359-5.0898 44.238-4.8086 62.441-65.012 149.22-64.809 212.07-5.1289 62.281-18.688 114.41-1.9141 155.12 49.176 74.73-15.891 155.55 26.883 169.96 121.49 81.453 17.398 128.88 101.48 91.23 189.12 68.137 63.809 79.512 135.76 30.039 194.95 28.379 60.113 12.961 134.61-45.133 170.6-12.27 7.6016-27 10.738-38.949 18.469-12.219 7.9062-18.926 23.059-28.953 33.465-21.957 22.785-51.121 35.793-82.652 37.578-4.7383 7.6211-1.8477 22.082-1.8516 30.379-0.007812 12.648 0 25.297 0.007812 37.945 0.015626 24.031 0.046876 48.062 0.03125 72.098-0.019531 30.582 0.91016 84.59-46.332 74.949-41.93-8.5547-29.551-68.562-29.477-98.852 0.0625-25.738 0.12891-51.473 0.16797-77.211 0.019531-11.582 0.03125-23.164 0.039062-34.746 0.003906-8.8008 3.1836-26.645-3.2695-34.023-17.887 15.531-35.496 31.883-59.008 37.145-6.5625 17.289-1.9062 43.469-1.918 61.574-0.015626 23.191 0.011718 46.387-0.125 69.578-0.17969 30.09 4.0039 78.703-39.742 77.09-40.336-1.4883-36.043-44.379-36.086-73.449-0.066406-45.195 0.082032-90.395 0.082032-135.59-14.059-6.6445-28.387-11.988-39.809-23.371-50.441 39.855-118.87 45.266-169.1 1.5117-28.82 21.996-61.039 33.5-99.715 30.121zm-349.97-429.89c-20.285 23.777-16.555 76.043 13.84 99.828 23.973 18.758 24.035 26.375 5.2773 49.363-20.426 25.035-23.312 53.074-9.3164 81.598 13.676 27.867 36.992 45.559 68.598 41.891 29.695-3.4492 44.66 5.793 56.707 33.668 22.504 52.051 88.234 60.629 125.98 19.211 15.09-16.559 32.363-14.824 44.059 4.4844 2.3828 3.9375 4.3359 8.1367 6.75 12.051 22.805 37.008 69.598 43.582 101.07 14.273 6.4883-6.0391 11.336-13.273 16.059-20.707 13.223-20.824 31.754-20.453 44.043 0.69141 1.8516 3.1875 3.5625 6.4688 5.6055 9.5312 18.922 28.398 54.906 38.387 83.922 23.102 14.789-7.7891 24.668-20.172 32.691-34.703 10.422-18.871 29.43-19.43 42.047-1.9102 1.8867 2.6172 3.5234 5.4102 5.3594 8.0625 29.098 42.02 81.543 43.586 113.55 3.5938 6.7266-8.4102 10.668-18.262 15.988-27.391 10.961-18.82 30.617-18.914 41.883-0.47266 1.918 3.1445 3.3242 6.6172 5.3828 9.6562 12.035 17.781 26.566 32.211 49.656 33.188 29.051 1.2266 52.258-14.223 62.598-42.668 6.2266-17.137 16.289-25.902 35.297-27.25 24.551-1.7383 43.527-14.625 54.508-37.199 14.172-29.141 11.262-56.902-7.4453-83.477-11.172-15.867-9.6094-27.215 3.7656-38.848 47.402-41.242 33.246-111.69-26.582-132.3-25.582-8.8125-29.559-23.84-11.992-44.125 17.406-20.102 24.051-43.59 18.438-69.512-7.9336-36.613-36.301-59.535-74.824-58.805-25.016 0.47266-37.66-11.105-31.793-36.297 4.6484-19.949-1.2227-38.309-13.5-54.617-22.664-30.105-58.016-40.18-95.059-27.027-22.918 8.1367-33.449 5.457-42.438-13.816-20.195-43.305-71.355-57.84-109.44-33.117-16.211 10.523-28.676 7.1523-38.613-9.4023-29.547-49.215-103.82-56.582-139.48-1.1797-9.3203 14.48-21.84 17.426-38.688 11.648-5.4219-1.8594-10.562-5.6367-17.691-3.7109 2.293 10.785 11.676 9.8594 18.414 10.84 32.074 4.668 56.398 21.797 76.02 46.336 26.301 32.891 31.379 70.871 24.625 111.55 4.4922 5.3906 8.9844 10.625 13.312 15.992 25.859 32.074 39.27 67.492 29.793 109.27-15.672 69.09-98.137 98.949-151.07 54.559-7.5742-6.3516-14.867-13.039-22.102-19.406-15.973 42.496-32.043 86.059-48.727 129.39-12.859 33.395-40.742 54.238-71.383 54.477-34.445 0.26562-60.922-19.785-74.512-57.371-15.762-43.598-30.988-87.387-47.07-132.86-16.719 24.383-38.105 41.293-67.035 45.426-29.016 4.1523-54.859-3.6914-76.473-25.508zm461.84-204.19c0.73828-28.504-15.801-57.828-43.234-68.082-20.578-7.6914-48.387 5.2227-62.617-15.359-14.871-21.508-22.371-41.312-48.406-52.41-21.855-9.3164-48.523-10.348-71.094-2.9883-21.348 6.9609-37.715 21.918-49.27 40.852-5.4531 8.9336-9.2891 18.855-19.398 23.547-9.8672 4.5781-19.945 1.2227-30.203 1.1602-52.23-0.30078-75.816 49.531-64.309 94.402 7.4453 29.039-13.957 43.852-29.82 65.609-13.504 18.527-22.578 44.332-8.4805 65.453 36.039 54 89.551-48.699 106.67-72.43 11.465-15.891 24.027-34.004 45.719-33.609 12.047 0.21875 22.848 5.8984 33.914 9.918 14.336 5.207 29.266 8.3672 44.555 8.375 15.289 0.003906 30.203-3.168 44.496-8.4961 10.234-3.8164 20.156-9.1367 31.34-9.4688 24.07-0.71094 37.574 20.734 50.262 37.914 17.32 23.453 33.348 52.934 54.406 73.062 17.25 16.488 43.512 10.609 53.086-10.949 12.359-27.832-7.543-51.184-23.789-71.992-8.6953-11.141-22.434-23.637-21.812-39.082 0.5-12.43 9.1914-22.441 7.9844-35.426z" fill="#fff"/>
</svg>
