<?xml version="1.0" encoding="UTF-8"?>
<svg width="1200pt" height="1200pt" version="1.1" viewBox="0 0 1200 1200" xmlns="http://www.w3.org/2000/svg">
 <path d="m660.68 322.02c62.133 0 112.5-50.371 112.5-112.5 0-62.133-50.367-112.5-112.5-112.5-62.129 0-112.5 50.367-112.5 112.5 0 62.129 50.371 112.5 112.5 112.5z" fill="#fff"/>
 <path d="m423.02 289.3c40.008 10.723 63.754 51.848 53.031 91.855l-58.234 217.34c-10.719 40.008-51.848 63.754-91.855 53.031-40.012-10.719-63.754-51.848-53.035-91.855l58.234-217.33c10.723-40.012 51.848-63.754 91.859-53.035z" fill="#fff"/>
 <path d="m711.61 403.77c-13.996-27.277-39.031-48.766-70.98-57.328-60.016-16.078-121.71 19.535-137.79 79.551l-38.406 143.34c-7.7578 28.949-3.6406 59.801 11.434 85.707l14.926 25.645-0.13281 0.078125 232.19 401.96c15.539 26.902 49.941 36.113 76.844 20.57 26.898-15.539 36.113-49.941 20.57-76.844l-167.62-290.19 38.371-143.2 12.738 22.066c12.641 21.895 36.008 35.387 61.293 35.387h97.16v441.58l0.30078 3.3672c1.5898 8.75 9.2422 15.383 18.449 15.383 10.355 0 18.75-8.3984 18.75-18.75v-443.33c24.312-6.2109 42.285-28.262 42.285-54.508 0-26.246-17.973-48.297-42.285-54.504v-85.16l-0.30469-3.3711c-1.5859-8.75-9.2422-15.379-18.445-15.379-10.355 0-18.75 8.3906-18.75 18.75v83.406l-73.102-0.007813z" fill="#fff"/>
 <path d="m489.79 754.19 77.188 133.57c-5.457 13.188-11.852 25.98-19.145 38.285l-93.191 157.23c-15.84 26.723-50.348 35.547-77.07 19.707-26.727-15.84-35.555-50.348-19.715-77.074l95.676-161.47c6.6562-11.227 11.816-23.273 15.352-35.836z" fill="#fff"/>
</svg>
