<?xml version="1.0" encoding="UTF-8"?>
<svg width="1200pt" height="1200pt" version="1.1" viewBox="0 0 1200 1200" xmlns="http://www.w3.org/2000/svg">
 <path d="m529.5 494.53h-0.28125c-4.8281-0.09375-9.4219-2.1562-12.703-5.7188l-30.844-33.844-47.062 1.875-0.046875 0.046875c-4.9688 0.1875-9.7969-1.7344-13.312-5.2969-3.4688-3.5625-5.25-8.4844-4.9219-13.453 1.3594-20.016 9.7969-38.859 23.766-53.203 14.578-15.328 34.781-24 55.922-24 18.188 0.14062 35.531 7.875 47.766 21.375 26.25 28.688 23.672 76.688-5.6719 106.92v-0.046875c-3.3281 3.4219-7.875 5.3438-12.609 5.3438zm-36.375-75c4.9219 0 9.6094 2.0625 12.938 5.7188l21.328 23.438c6.0938-14.906 4.4531-31.688-5.5781-42.656-5.7188-6.2812-13.828-9.8906-22.359-9.8906h0.046875c-11.484 0.14062-22.406 5.0156-30.188 13.453-3.2344 3.3281-6 7.125-8.2031 11.25l31.312-1.2656z" fill="#fff"/>
 <path d="m704.26 842.63c-21.281 0-40.453-12.797-48.609-32.484-8.1562-19.641-3.6562-42.281 11.391-57.328 15.047-15.047 37.688-19.547 57.328-11.438 19.688 8.1562 32.484 27.328 32.484 48.656 0 29.016-23.531 52.547-52.594 52.594zm0-70.031c-7.0312-0.046875-13.406 4.2188-16.125 10.734s-1.2188 14.062 3.7969 19.031c4.9688 5.0156 12.516 6.5156 19.031 3.7969 6.5156-2.7188 10.781-9.0938 10.734-16.125 0-9.6562-7.7812-17.438-17.438-17.438z" fill="#fff"/>
 <path d="m786.66 626.48c-9.7031 0-17.578-7.875-17.578-17.578v-51.562c0-9.75 7.875-17.578 17.578-17.578s17.578 7.8281 17.578 17.578v51.562c0 4.6406-1.875 9.0938-5.1562 12.422-3.2812 3.2812-7.7812 5.1562-12.422 5.1562z" fill="#fff"/>
 <path d="m600 1152c-146.39 0-286.78-58.172-390.28-161.68s-161.63-243.89-161.63-390.24c0-146.39 58.125-286.78 161.63-390.28 102.98-105.94 244.13-166.13 391.82-167.21 147.74-1.0312 289.74 57.188 394.18 161.68 104.48 104.44 162.71 246.42 161.68 394.18-1.0781 147.71-61.266 288.84-167.21 391.82-103.27 103.83-243.74 162.05-390.19 161.72zm0-1068.7c-284.95 0-516.79 231.84-516.79 516.79s231.84 516.79 516.79 516.79 516.79-231.84 516.79-516.79-231.84-516.79-516.79-516.79z" fill="#fff"/>
 <path d="m600 1049.1c-247.64 0-449.06-201.42-449.06-449.06 0-247.64 201.42-449.06 449.06-449.06 247.64 0 449.06 201.56 449.06 449.06s-201.42 449.06-449.06 449.06zm0-863.02c-228.24 0.046875-413.9 185.72-413.9 413.95 0 228.23 185.68 413.9 413.9 413.9s413.9-185.68 413.9-413.9-185.68-413.9-413.9-413.9z" fill="#fff"/>
 <path d="m600 1049.1c-9.7031 0-17.578-7.8281-17.578-17.531v-863.06c0-9.7031 7.875-17.531 17.578-17.531s17.578 7.8281 17.578 17.531v863.06c0 4.6406-1.875 9.0938-5.1562 12.422-3.2812 3.2812-7.7812 5.1094-12.422 5.1094z" fill="#fff"/>
 <path d="m226.31 833.34c-7.9688 0-14.953-5.3438-17.016-13.031s1.3125-15.797 8.2031-19.781l747.42-431.53c8.3906-4.8281 19.172-1.9219 24.047 6.4688 4.8281 8.3906 1.9219 19.172-6.4688 24l-747.42 431.53c-2.6719 1.5-5.6719 2.3438-8.7656 2.3438z" fill="#fff"/>
 <path d="m973.69 833.34c-3.0938 0-6.0938-0.79688-8.7656-2.3438l-747.42-431.53c-8.3906-4.875-11.297-15.609-6.4688-24 4.875-8.4375 15.656-11.344 24.047-6.4688l747.42 431.53c6.8906 3.9844 10.266 12.094 8.2031 19.781s-9.0469 13.031-17.016 13.031z" fill="#fff"/>
 <path d="m661.97 347.06c-6.6094 0-12.656-3.7031-15.656-9.5625-9.0938-17.859-11.484-38.344-6.8438-57.844h0.046875c4.6406-20.625 17.578-38.391 35.719-49.219 15.703-9.1875 34.5-11.391 51.938-6.0938 37.219 11.25 59.578 53.766 49.828 94.781v-0.046875c-1.125 4.7344-4.125 8.7656-8.3438 11.203-4.2188 2.3906-9.1875 3-13.828 1.5938l-43.828-13.219-39.469 25.781v-0.046875c-2.8594 1.8281-6.1875 2.7656-9.5625 2.6719zm46.219-90.562v0.046875c-5.4375 0.046875-10.781 1.5-15.422 4.2656-9.7969 6-16.688 15.75-19.078 27-1.0781 4.5469-1.5 9.1875-1.2656 13.875l26.25-17.062c4.3125-2.8594 9.7031-3.6094 14.672-2.1094l30.281 9.1406c-2.3438-15.938-12.375-29.438-26.625-33.75-2.8594-0.89062-5.8125-1.3594-8.8125-1.3594z" fill="#fff"/>
 <path d="m245.16 610.5c-6.6094 0-12.656-3.7031-15.656-9.5625-9.0938-17.859-11.484-38.344-6.8438-57.844 4.6406-20.625 17.578-38.391 35.719-49.219 15.703-9.1875 34.547-11.391 51.938-6.0938 37.219 11.25 59.578 53.766 49.828 94.781-1.0781 4.6875-4.0781 8.7188-8.2969 11.156s-9.2344 3-13.875 1.5938l-43.828-13.266-39.469 25.781c-2.8125 1.7812-6.1406 2.7188-9.5156 2.6719zm46.219-90.516c-5.3906 0.046875-10.734 1.5-15.422 4.2656-9.75 6-16.641 15.75-19.031 26.953-1.0781 4.5469-1.5 9.2344-1.3125 13.922l26.25-17.062c4.3594-2.8594 9.7031-3.6094 14.672-2.1562l30.281 9.1875c-2.3438-15.938-12.375-29.484-26.625-33.75-2.8125-0.89062-5.8125-1.3594-8.8125-1.3594z" fill="#fff"/>
 <path d="m413.16 920.06c-6.6094 0-12.656-3.7031-15.656-9.5625-9.3281-18.328-11.859-39.422-7.0312-59.438 4.7344-21.188 18-39.516 36.656-50.625 16.125-9.4219 35.484-11.719 53.344-6.2812 38.203 11.531 61.125 55.219 51.141 97.359-1.125 4.6875-4.1719 8.7656-8.3438 11.156-4.2188 2.4375-9.2344 3-13.828 1.5938l-45.609-13.781-41.062 26.719-0.046875 0.046875c-2.8125 1.8281-6.1875 2.8125-9.5625 2.8125zm47.859-93.75h-0.046875c-5.7188 0.046875-11.344 1.6406-16.266 4.5-10.266 6.3281-17.484 16.547-20.016 28.312-1.1719 5.1094-1.5938 10.359-1.2188 15.609l28.125-18.281v0.046875c4.3125-2.8594 9.7031-3.6094 14.625-2.1094l32.25 9.75c-2.3438-17.156-12.844-31.781-28.125-36.375-3-0.9375-6.1875-1.3594-9.375-1.3594z" fill="#fff"/>
 <path d="m861.28 690.14c-6.6094 0-12.656-3.7031-15.656-9.5625-9.0469-17.859-11.484-38.391-6.7969-57.891 4.6406-20.578 17.578-38.391 35.719-49.219 15.703-9.2344 34.5-11.531 51.984-6.2812 37.219 11.25 59.578 53.906 49.828 94.781h-0.046875c-1.0781 4.7344-4.125 8.7656-8.2969 11.156-4.2188 2.4375-9.2344 3-13.875 1.5938l-43.828-13.219-39.422 25.781h-0.046875c-2.8125 1.875-6.1875 2.8594-9.5625 2.8594zm46.266-90.562-0.046875 0.046875c-5.3906 0.046875-10.734 1.5-15.422 4.2188-9.75 6.0469-16.641 15.797-19.031 27-1.0781 4.5469-1.5469 9.2344-1.2656 13.875l26.25-17.062h-0.046875c4.3594-2.8125 9.7031-3.5625 14.672-2.1094l30.281 9.1406c-2.3906-15.938-12.469-29.438-26.531-33.75-2.8594-0.89062-5.8594-1.3125-8.9062-1.3125z" fill="#fff"/>
 <path d="m502.6 322.5c-21.281 0-40.453-12.844-48.609-32.484-8.1094-19.641-3.6094-42.281 11.438-57.328s37.641-19.547 57.281-11.391c19.688 8.1562 32.484 27.328 32.484 48.609-0.046875 29.016-23.578 52.547-52.594 52.594zm0-70.031c-7.0312 0-13.406 4.2188-16.125 10.734-2.6719 6.5156-1.1719 14.016 3.7969 19.031 4.9688 4.9688 12.469 6.4688 18.984 3.75 6.5156-2.6719 10.781-9.0469 10.781-16.078 0-4.6406-1.8281-9.0938-5.1094-12.375-3.2812-3.2344-7.6875-5.1094-12.328-5.1094z" fill="#fff"/>
 <path d="m724.78 974.81c-21.281 0-40.453-12.797-48.609-32.438-8.1094-19.641-3.6094-42.281 11.438-57.328s37.641-19.547 57.281-11.391c19.688 8.1562 32.484 27.328 32.484 48.562-0.046875 29.062-23.578 52.594-52.594 52.594zm0-70.031c-7.0312 0-13.406 4.2656-16.125 10.781-2.6719 6.5156-1.1719 14.016 3.7969 19.031 4.9688 4.9688 12.469 6.4688 18.984 3.75 6.5156-2.6719 10.781-9.0469 10.781-16.125 0-9.6094-7.8281-17.391-17.438-17.438z" fill="#fff"/>
 <path d="m842.9 898.87c-21.281 0-40.453-12.797-48.609-32.438-8.1094-19.641-3.6094-42.281 11.438-57.328s37.641-19.547 57.281-11.391c19.688 8.1562 32.484 27.328 32.484 48.562-0.046875 29.062-23.578 52.594-52.594 52.594zm0-70.031c-7.0312 0-13.406 4.2656-16.125 10.781-2.6719 6.5156-1.1719 14.016 3.7969 19.031 4.9688 4.9688 12.469 6.4688 18.984 3.75 6.5156-2.6719 10.781-9.0469 10.781-16.125 0-9.6094-7.8281-17.391-17.438-17.438z" fill="#fff"/>
 <path d="m907.82 532.74c-7.6406 0-14.391-4.9219-16.734-12.141-2.3438-7.2656 0.23438-15.188 6.375-19.688l41.719-30.281h0.046875c7.875-5.7188 18.938-3.9375 24.609 3.9844 5.7188 7.875 3.9375 18.891-3.9375 24.609l-41.719 30.281h-0.046875c-3 2.1562-6.6094 3.2812-10.312 3.2344z" fill="#fff"/>
 <path d="m663.61 461.72c-7.3125 0-13.875-4.5469-16.453-11.438s-0.5625-14.672 4.9688-19.453l39-33.656 0.046875-0.046875c3.5156-3.1406 8.1562-4.7812 12.891-4.5s9.1406 2.4844 12.234 6.0469c3.0938 3.6094 4.5938 8.2969 4.2188 12.984-0.42188 4.7344-2.7188 9.0938-6.375 12.094l-39 33.703h-0.046875c-3.1875 2.7656-7.2656 4.2656-11.484 4.2656z" fill="#fff"/>
 <path d="m791.58 438.28c-7.3125 0-13.828-4.5469-16.406-11.391l-18.141-48.234c-2.5781-8.8594 2.0625-18.188 10.688-21.422 8.5781-3.2344 18.234 0.70312 22.125 9.0469l18.141 48.281c2.0156 5.3906 1.2656 11.391-1.9688 16.172-3.2812 4.7344-8.6719 7.5469-14.438 7.5469z" fill="#fff"/>
 <path d="m889.78 383.39c-2.7656 0-5.4844-0.65625-7.9688-1.875l-45.984-23.25 0.046875-0.046875c-8.6719-4.3594-12.141-14.953-7.7812-23.625s14.953-12.141 23.625-7.7812l45.938 23.297c7.2656 3.7031 11.062 11.906 9.1406 19.781-1.875 7.9219-8.9531 13.5-17.109 13.5z" fill="#fff"/>
 <path d="m385.87 386.9c-9.7031 0-17.578-7.8281-17.578-17.531v-51.562c0-9.75 7.875-17.625 17.578-17.625s17.578 7.875 17.578 17.625v51.562c0 4.6406-1.875 9.0938-5.1562 12.422-3.2812 3.2812-7.7812 5.1094-12.422 5.1094z" fill="#fff"/>
 <path d="m426.56 644.26c-9.7031 0-17.578-7.8281-17.578-17.531v-51.562c0-9.75 7.875-17.625 17.578-17.625s17.578 7.875 17.578 17.625v51.562c0 4.6406-1.875 9.0938-5.1562 12.422-3.2812 3.2812-7.7812 5.1094-12.422 5.1094z" fill="#fff"/>
 <path d="m287.53 699.61c-6.2344 0-12-3.3281-15.141-8.7188s-3.2344-12-0.14062-17.484l25.219-45v0.046875c2.25-4.0781 6.0469-7.0781 10.547-8.3438s9.2812-0.65625 13.359 1.5938c8.4844 4.7812 11.484 15.469 6.75 23.953l-25.219 45h-0.046875c-3.0938 5.5312-8.9531 8.9531-15.328 8.9531z" fill="#fff"/>
 <path d="m522.94 797.16c-5.3906 0.046875-10.406-2.3906-13.781-6.5625l-32.203-40.266 0.046875-0.046875c-5.8594-7.5469-4.5469-18.422 2.9062-24.422 7.5-6 18.375-4.875 24.516 2.4844l32.297 40.266c4.2188 5.2969 5.0156 12.516 2.1094 18.609-2.9531 6.0938-9.0938 9.9375-15.844 9.9375z" fill="#fff"/>
</svg>
